<svg width="119" height="99" viewBox="0 0 119 99" fill="none" xmlns="http://www.w3.org/2000/svg">
<path d="M0.196369 50.1071C0.196369 50.1071 4.32815 29.8737 25.3104 28.3589C45.3145 28.2516 70.4286 28.3589 70.4286 28.3589V17.3214H23.8962C23.8962 17.3214 -2.52277 18.4055 0.196369 50.1071Z" fill="#60a5fa"/>
<path d="M55.8519 41.6071V52.2181H26.8809C23.6815 52.2447 20.5704 53.2819 17.9829 55.1845C15.3954 57.0872 13.461 59.7601 12.4505 62.8291C8.4056 73.8818 14.9648 80.6242 14.9648 80.6242C14.9648 80.6242 20.0968 89.2445 33.4926 86.1497C46.8885 83.0549 45.2479 70.1428 45.2479 70.1428L55.8519 70.1228C55.8519 70.1228 56.7272 91.0128 35.846 97.4232C14.9647 103.834 3.59544 83.6078 3.59544 83.6078C3.59544 83.6078 -4.4943 67.8034 3.59544 55.6998C6.59818 51.1461 10.6118 47.3647 15.3162 44.6571C18.8527 42.6501 22.8418 41.6001 26.8974 41.6088L55.8519 41.6071Z" fill="#60a5fa"/>
<path d="M88.6381 42.8214C87.0389 42.8447 85.5115 43.4893 84.3792 44.6189C83.2469 45.7485 82.5986 47.2743 82.5716 48.8735C82.5677 50.0753 82.9207 51.2513 83.5857 52.2523C84.2507 53.2534 85.1979 54.0347 86.3072 54.497C87.4166 54.9594 88.6382 55.0821 89.8173 54.8496C90.9965 54.6171 92.0801 54.0399 92.931 53.1911C93.7818 52.3423 94.3616 51.2601 94.5969 50.0815C94.8322 48.9029 94.7124 47.681 94.2527 46.5705C93.793 45.4601 93.0141 44.5111 92.0146 43.8436C91.0151 43.1762 89.84 42.8205 88.6381 42.8214" fill="#60a5fa"/>
<path d="M114.647 32.1593C114.021 31.8999 113.502 31.4322 113.177 30.8342C112.852 30.2362 112.741 29.544 112.861 28.8732C112.956 23.4294 112.923 17.9857 112.891 12.5419C112.967 9.86661 112.181 7.23843 110.65 5.05007C109.12 2.8617 106.928 1.23065 104.401 0.400624C104.332 0.375879 104.262 0.344536 104.198 0.321442H8.61433C6.1934 1.06531 4.06365 2.55192 2.5225 4.57363C0.981353 6.59535 0.105766 9.05123 0.0180216 11.5983C0 11.953 0 12.3076 0 12.6607V28.5565C1.14598 25.7024 2.76101 23.0629 4.77737 20.7488C5.22954 20.2308 5.69483 19.7442 6.16831 19.2806C6.16831 17.2494 6.16831 15.2148 6.16831 13.177C6.12434 11.9854 6.30387 10.7962 6.69749 9.67154C7.11835 8.61392 7.831 7.69966 8.75126 7.03671C9.67153 6.37375 10.761 5.9898 11.891 5.93018C12.1541 5.90797 12.4183 5.90026 12.6823 5.90708C47.2166 5.90708 65.5888 5.90708 100.123 5.90708C101.543 5.81204 102.95 6.21929 104.103 7.05846C105.256 7.89763 106.082 9.11598 106.437 10.5029C106.577 11.0588 106.644 11.6305 106.637 12.2037C106.651 18.0511 106.651 23.8979 106.637 29.7442C106.637 29.9983 106.599 30.254 106.57 30.6383H105.096C99.3319 30.6383 93.5682 30.5971 87.8062 30.6532C82.9384 30.7852 78.3199 32.8499 74.9581 36.3971C71.5962 39.9443 69.7638 44.6861 69.8605 49.5883C69.9571 54.4905 71.9751 59.1553 75.4741 62.5654C78.9731 65.9754 83.6694 67.8539 88.5386 67.7913C94.0368 67.844 99.5367 67.8011 105.035 67.8011H106.572C106.601 68.3241 106.644 68.7497 106.644 69.1753C106.644 74.6191 106.526 80.076 106.688 85.5198C106.762 86.4585 106.633 87.4022 106.309 88.2854C105.985 89.1687 105.474 89.9704 104.811 90.6349C104.148 91.2994 103.35 91.8108 102.472 92.1336C101.593 92.4564 100.655 92.5829 99.7234 92.5043C84.5459 92.4433 85.5306 92.4812 70.3531 92.4812H49.933C47.3599 95.0729 44.337 97.1679 41.0139 98.6624C66.2147 98.6871 75.255 98.6805 100.454 98.6624C102.121 98.6808 103.774 98.3582 105.313 97.7143C106.852 97.0703 108.245 96.1184 109.408 94.9162C110.571 93.7141 111.479 92.2867 112.078 90.7205C112.676 89.1544 112.953 87.4822 112.891 85.8052C112.927 80.0018 112.914 74.1984 112.882 68.3967C112.83 68.0377 112.903 67.6716 113.09 67.3612C113.276 67.0508 113.565 66.8155 113.905 66.6959C115.081 66.133 116.121 65.3173 116.951 64.306C117.78 63.2948 118.38 62.1127 118.707 60.843C118.791 60.6026 118.889 60.3674 119 60.1386V38.3487C118.751 37.0654 118.235 35.8499 117.484 34.7829C116.734 33.7158 115.767 32.8215 114.647 32.1593V32.1593ZM112.83 57.8935C112.814 60.4026 111.642 61.5078 109.154 61.5227C105.59 61.5359 102.027 61.5227 98.4635 61.5227C95.2082 61.5227 91.9528 61.5425 88.6975 61.5227C85.8802 61.6265 83.1143 60.7428 80.872 59.0223C78.6296 57.3018 77.0497 54.8511 76.4018 52.0884C74.4653 45.2144 79.9144 37.283 86.9854 37.0471C94.4103 36.8013 101.847 36.8706 109.278 36.8657C111.683 36.8657 112.812 38.0484 112.828 40.4948C112.868 46.2971 112.868 52.0994 112.828 57.9017" fill="#60a5fa"/>
</svg>
